<?xml version="1.0" standalone="no"?>
<!DOCTYPE svg PUBLIC "-//W3C//DTD SVG 20010904//EN"
 "http://www.w3.org/TR/2001/REC-SVG-20010904/DTD/svg10.dtd">
<svg version="1.0" xmlns="http://www.w3.org/2000/svg"
 width="1920.000000pt" height="1920.000000pt" viewBox="0 0 1920.000000 1920.000000"
 preserveAspectRatio="xMidYMid meet">
<metadata>
Created by potrace 1.14, written by Peter Selinger 2001-2017
</metadata>
<g transform="translate(0.000000,1920.000000) scale(0.100000,-0.100000)"
fill="#000000" stroke="none">
<path d="M3018 12505 c-2 -2 -41 -6 -88 -9 -88 -7 -114 -10 -190 -21 -25 -3
-61 -8 -80 -10 -19 -3 -46 -7 -60 -10 -14 -3 -36 -8 -50 -10 -34 -5 -54 -10
-126 -29 -33 -8 -69 -17 -80 -19 -10 -2 -26 -7 -34 -10 -22 -8 -119 -38 -133
-41 -7 -2 -23 -7 -37 -13 -14 -6 -52 -20 -85 -32 -33 -12 -78 -30 -100 -40
-100 -46 -235 -113 -285 -142 -30 -17 -68 -38 -85 -48 -16 -9 -32 -19 -35 -22
-4 -5 -120 -83 -169 -114 -9 -5 -20 -16 -24 -22 -4 -7 -14 -13 -22 -13 -7 0
-15 -4 -17 -8 -1 -5 -34 -35 -73 -67 -133 -110 -314 -301 -416 -440 -24 -33
-47 -61 -51 -63 -5 -2 -8 -8 -8 -13 0 -5 -22 -41 -48 -81 -27 -40 -62 -98 -78
-128 -16 -30 -31 -57 -34 -60 -3 -3 -16 -30 -30 -60 -14 -30 -28 -56 -32 -58
-5 -2 -8 -10 -8 -19 0 -8 -6 -27 -14 -41 -8 -15 -22 -47 -31 -72 -10 -25 -21
-54 -26 -65 -20 -48 -71 -215 -86 -280 -29 -131 -41 -192 -49 -252 -3 -26 -8
-56 -10 -67 -19 -101 -26 -555 -10 -701 14 -130 31 -246 41 -285 1 -3 5 -23
10 -45 4 -22 10 -49 12 -60 3 -11 7 -31 10 -45 2 -14 7 -32 11 -40 3 -8 7 -22
8 -30 1 -8 21 -67 43 -130 23 -63 43 -119 44 -125 2 -5 10 -26 19 -45 9 -19
21 -51 28 -70 8 -19 19 -42 25 -50 7 -8 16 -26 20 -40 4 -14 11 -30 16 -36 5
-6 23 -37 40 -70 17 -32 44 -78 60 -102 16 -24 29 -45 29 -48 0 -3 6 -12 13
-19 26 -30 37 -44 37 -50 0 -4 87 -122 100 -135 3 -3 30 -34 60 -70 30 -36
100 -110 155 -165 260 -257 573 -462 900 -589 66 -26 129 -52 140 -57 11 -5
29 -11 40 -14 11 -2 59 -15 106 -29 85 -25 201 -54 249 -62 14 -2 36 -7 50
-10 33 -8 55 -11 115 -19 28 -3 64 -8 80 -10 33 -5 123 -15 195 -20 121 -10
476 -4 585 9 28 3 77 8 110 11 33 3 67 8 75 10 8 2 33 7 55 10 23 3 52 8 65
11 14 3 34 7 45 9 17 2 180 41 210 50 6 1 12 3 15 4 3 0 43 14 90 29 47 16 87
29 90 30 27 4 285 115 288 124 2 4 12 8 22 8 10 0 20 3 22 8 2 4 32 22 68 41
71 38 219 131 262 165 14 11 41 32 59 46 104 79 256 223 347 327 l52 61 -91
83 c-51 46 -116 107 -145 134 -29 28 -94 88 -145 135 -51 47 -112 103 -136
125 -24 22 -72 67 -109 100 -36 33 -87 81 -114 107 -27 27 -52 48 -54 48 -2 0
-56 -51 -118 -112 -123 -122 -124 -123 -231 -201 -77 -57 -140 -96 -226 -139
-56 -28 -150 -71 -163 -74 -5 -1 -9 -2 -10 -4 -2 -1 -10 -3 -18 -5 -8 -2 -53
-16 -100 -30 -47 -14 -101 -27 -120 -31 -19 -3 -42 -7 -51 -10 -16 -4 -67 -11
-154 -19 -53 -6 -312 -6 -350 0 -35 4 -143 18 -165 20 -9 0 -21 4 -28 9 -6 4
-12 5 -12 3 0 -3 -17 -1 -37 4 -21 5 -49 12 -63 15 -105 21 -335 116 -454 187
-131 79 -319 245 -410 362 -25 33 -50 65 -54 70 -27 35 -96 147 -94 152 2 3
-1 9 -6 12 -27 18 -124 263 -157 401 -21 86 -23 95 -41 215 -7 45 -19 301 -14
315 1 3 3 43 5 90 2 47 9 117 15 155 7 39 13 79 15 90 25 172 125 426 234 590
25 38 48 75 50 80 2 6 7 12 12 15 4 3 22 23 39 45 36 45 135 150 172 180 158
133 298 218 483 295 55 22 100 40 100 39 0 -1 32 8 70 19 39 11 84 23 100 26
17 3 66 11 110 19 43 8 96 14 117 13 21 0 38 2 38 5 0 7 326 3 385 -5 184 -24
349 -70 510 -144 55 -25 107 -52 116 -59 8 -7 19 -13 22 -13 9 0 192 -125 217
-148 10 -9 50 -44 87 -77 38 -33 84 -78 103 -101 68 -80 68 -80 136 -16 34 32
105 98 159 147 53 50 112 104 129 120 28 26 124 114 283 260 24 22 70 65 103
97 l59 56 -42 48 c-43 50 -173 179 -223 224 -88 78 -322 249 -374 273 -8 4
-31 17 -50 28 -143 87 -491 232 -607 254 -14 2 -31 9 -39 16 -8 6 -14 9 -14 6
0 -3 -17 -1 -37 4 -21 5 -56 13 -78 18 -22 5 -49 11 -60 14 -11 3 -51 10 -90
16 -38 6 -88 13 -110 17 -41 6 -52 7 -165 19 -63 6 -517 15 -522 10z"/>
<path d="M6272 9725 l3 -2689 69 2 c38 1 71 4 74 6 2 3 15 1 28 -4 14 -6 26
-6 29 0 3 6 15 6 30 0 14 -5 27 -5 30 0 3 5 18 5 35 0 19 -5 30 -5 30 1 0 6 5
7 11 4 14 -9 214 -9 228 0 6 3 11 2 11 -4 0 -6 11 -6 30 -1 17 5 30 6 30 2 0
-8 74 -7 87 1 5 3 15 2 23 -3 8 -5 21 -5 30 0 9 5 22 5 30 0 8 -5 21 -5 30 0
9 5 22 5 30 0 8 -5 21 -5 30 0 9 5 22 5 30 0 8 -5 21 -5 30 0 9 5 22 5 30 0 8
-5 21 -5 30 0 9 5 22 5 30 0 8 -5 21 -5 30 0 9 5 22 5 30 0 8 -5 21 -5 30 0 9
5 22 5 30 0 8 -5 21 -5 30 0 9 5 22 5 30 0 8 -5 21 -5 30 0 9 5 22 5 30 0 8
-5 21 -5 30 0 9 5 22 5 28 1 7 -4 35 -5 62 -1 27 4 55 3 62 -1 6 -4 19 -4 28
1 9 5 22 5 30 0 8 -5 21 -5 30 0 9 5 22 5 30 0 8 -5 21 -5 30 0 9 5 22 5 30 0
8 -5 21 -5 30 0 9 5 22 5 30 0 8 -5 21 -5 30 0 8 4 22 4 31 0 8 -5 21 -5 29 0
8 5 21 5 30 0 9 -5 22 -5 30 0 8 5 21 5 30 0 9 -5 22 -5 30 0 8 5 21 5 30 0 9
-5 22 -5 30 0 8 5 21 5 30 0 9 -5 22 -5 30 0 8 5 21 5 30 0 9 -5 22 -5 30 0 8
5 21 5 30 0 9 -5 22 -5 30 0 8 5 21 5 30 0 9 -5 22 -5 30 0 7 4 24 4 36 0 14
-6 26 -5 29 0 3 6 15 6 29 0 13 -5 27 -6 30 -3 8 8 76 9 76 1 0 -4 14 -3 30 2
17 5 30 5 30 0 0 -5 13 -5 30 0 17 5 30 6 30 2 0 -8 180 -5 188 2 2 3 12 1 21
-4 10 -5 23 -5 31 0 8 5 21 5 30 0 9 -5 22 -5 30 0 8 5 21 5 30 0 9 -5 22 -5
30 0 8 5 21 5 30 0 9 -5 22 -5 30 0 8 5 21 5 30 0 9 -5 22 -5 30 0 8 5 21 5
30 0 9 -5 22 -5 30 0 8 5 21 5 30 0 9 -5 22 -5 30 0 8 5 21 5 30 0 9 -5 22 -5
30 0 8 5 21 5 30 0 9 -5 22 -5 30 0 8 5 21 5 30 0 9 -5 22 -5 30 0 8 5 21 5
30 0 9 -5 22 -5 30 0 8 5 21 5 30 0 9 -5 22 -5 30 0 8 5 21 5 30 0 9 -5 22 -5
30 0 7 4 24 4 36 0 14 -6 26 -5 29 0 3 6 15 6 29 0 13 -5 27 -6 30 -3 8 8 76
9 76 1 0 -4 14 -3 30 2 17 5 30 5 30 0 0 -5 13 -5 30 0 17 5 30 6 30 2 0 -4
30 -6 67 -5 38 1 84 2 103 2 33 1 42 1 88 1 51 -1 76 1 80 5 4 4 6 807 3 956
l-1 37 -1437 0 c-791 1 -1449 1 -1463 1 l-25 1 1 613 c0 337 3 617 6 622 4 6
51 9 110 7 56 -1 112 -2 123 -2 18 1 890 1 955 1 14 -1 195 0 403 2 207 1 377
-2 377 -6 0 -5 5 -5 12 -1 6 4 124 8 262 8 l250 1 0 465 c1 256 -1 473 -3 483
-3 16 -71 17 -1250 17 l-1246 0 1 583 0 582 1407 1 c774 1 1410 4 1414 7 5 5
8 840 4 967 l-1 25 -2030 0 -2030 0 2 -2690z"/>
<path d="M11425 12410 c-1 -3 -2 -1211 -2 -2686 0 -2454 1 -2681 16 -2682 33
-3 115 -1 119 3 3 2 12 0 21 -5 10 -5 23 -5 31 0 8 5 21 5 30 0 9 -5 22 -5 30
0 8 5 21 5 30 0 9 -5 22 -5 30 0 8 5 21 5 30 0 9 -5 22 -5 30 0 8 5 21 5 30 0
9 -5 22 -5 30 0 8 5 21 5 30 0 9 -5 22 -5 30 0 8 5 21 5 30 0 9 -5 22 -5 30 0
8 5 21 5 30 0 9 -5 22 -5 30 0 8 5 21 5 30 0 9 -5 22 -5 30 0 8 5 21 5 30 0 9
-5 22 -5 30 0 8 5 21 5 30 0 9 -5 22 -5 30 0 8 5 21 5 30 0 9 -5 22 -5 30 0 8
5 21 5 30 0 9 -5 22 -5 30 0 7 4 24 4 36 0 14 -6 26 -5 29 0 3 6 15 6 29 0 13
-5 27 -6 30 -3 8 8 76 9 76 1 0 -4 14 -3 30 2 17 5 30 5 30 2 0 -10 64 -9 71
0 3 5 5 1215 5 2690 l-1 2683 -618 0 c-340 0 -620 -2 -622 -5z"/>
<path d="M13944 9731 l1 -2685 27 -7 c16 -4 30 -3 33 1 3 5 16 6 28 2 25 -8
80 -8 94 1 5 3 15 2 22 -3 8 -4 27 -4 42 0 16 5 29 6 29 2 0 -8 138 -7 146 1
3 3 18 2 33 -3 15 -4 34 -4 42 1 8 4 21 4 28 -1 8 -4 27 -4 42 0 16 5 29 6 29
2 0 -4 16 -7 35 -7 19 0 35 3 35 7 0 4 13 3 29 -2 16 -4 32 -6 35 -3 7 7 95 8
102 0 3 -3 17 -2 30 3 14 6 26 6 29 0 3 -5 15 -6 28 -1 12 5 32 5 44 0 13 -5
25 -4 28 1 3 6 15 6 30 0 15 -6 27 -6 30 0 3 6 15 6 30 0 15 -6 27 -6 30 0 3
5 16 6 28 1 12 -4 33 -5 47 -1 14 4 31 2 38 -3 6 -5 13 -8 14 -6 0 2 2 336 3
741 1 406 4 741 8 744 5 5 429 7 577 4 8 -1 186 1 395 4 360 5 436 8 530 20
22 3 60 8 85 11 25 3 52 7 60 9 8 1 38 6 65 10 84 13 295 66 390 98 252 85
476 205 665 355 43 35 204 195 249 248 158 187 318 530 356 765 6 40 15 93 20
120 25 142 23 473 -5 640 -15 87 -17 101 -35 175 -38 162 -136 395 -214 509
-17 25 -31 47 -31 50 0 3 -9 16 -19 28 -10 13 -46 57 -79 98 -59 74 -176 191
-240 240 -18 14 -43 33 -55 44 -35 29 -148 101 -223 142 -38 21 -72 42 -75 47
-3 5 -10 9 -15 10 -8 0 -85 32 -139 57 -35 16 -100 42 -115 45 -8 2 -40 13
-70 24 -55 20 -153 48 -200 57 -14 2 -32 7 -40 10 -8 3 -24 7 -35 9 -11 2 -33
6 -50 9 -113 21 -210 36 -270 41 -38 4 -86 9 -105 11 -19 3 -618 6 -1331 7
l-1296 2 1 -2684z m2396 1666 c83 -5 160 -14 210 -23 14 -3 34 -7 45 -9 297
-53 557 -241 665 -478 29 -65 58 -154 65 -203 2 -16 7 -49 11 -74 9 -58 9
-175 0 -270 -6 -70 -13 -115 -16 -115 -1 0 -3 -10 -6 -23 -14 -77 -95 -252
-137 -297 -6 -7 -27 -32 -46 -55 -50 -59 -163 -141 -261 -188 -73 -34 -175
-70 -175 -61 0 1 -9 -3 -21 -9 -12 -6 -50 -16 -85 -22 -35 -5 -74 -12 -87 -14
-92 -19 -1283 -32 -1307 -15 -7 5 -10 326 -9 930 0 846 2 923 17 928 19 7
1015 5 1137 -2z"/>
</g>
</svg>
